<?xml version="1.0" encoding="utf-8"?>
<!-- Generator: Adobe Illustrator 19.2.1, SVG Export Plug-In . SVG Version: 6.00 Build 0)  -->
<svg version="1.1" id="svg11252" xmlns:svg="http://www.w3.org/2000/svg"
	 xmlns="http://www.w3.org/2000/svg" xmlns:xlink="http://www.w3.org/1999/xlink" x="0px" y="0px" viewBox="0 0 76 27"
	 style="enable-background:new 0 0 76 27;" xml:space="preserve">
<style type="text/css">
	.st0{opacity:0.4938;fill:url(#rect99969_1_);enable-background:new    ;}
	.st1{opacity:0.4313;fill:url(#path99971_1_);enable-background:new    ;}
	.st2{fill:#FFFFFF;}
</style>
<g id="layer1" transform="translate(-337,-518.86218)">
	<g id="g99967" transform="translate(326,44.862171)">
		
			<radialGradient id="rect99969_1_" cx="60" cy="-746.3553" r="38" gradientTransform="matrix(1 0 0 -0.3487 -11 227.7577)" gradientUnits="userSpaceOnUse">
			<stop  offset="0" style="stop-color:#FFFFFF"/>
			<stop  offset="1" style="stop-color:#FFFFFF;stop-opacity:0"/>
		</radialGradient>
		<rect id="rect99969" x="11" y="487" class="st0" width="76" height="2"/>
		
			<radialGradient id="path99971_1_" cx="3.9444" cy="104.8345" r="10.5" gradientTransform="matrix(1.2857 0 0 -1.2857 45.4286 622.2872)" gradientUnits="userSpaceOnUse">
			<stop  offset="0" style="stop-color:#FFFFFF"/>
			<stop  offset="1" style="stop-color:#FFFFFF;stop-opacity:0"/>
		</radialGradient>
		<path id="path99971" class="st1" d="M64,487.5c0,7.5-6,13.5-13.5,13.5S37,495,37,487.5S43,474,50.5,474S64,480,64,487.5z"/>
		<path id="path99973" class="st2" d="M55.1,487.5c0,2.5-2,4.6-4.6,4.6c-2.5,0-4.6-2-4.6-4.6c0-2.5,2-4.6,4.6-4.6
			C53,482.9,55.1,485,55.1,487.5z"/>
	</g>
</g>
</svg>
