/* XPM */
static char * C:\Users\ETi\Desktop\Git\arc_grey_theme\common\xfwm4_dark\close_pressed_xpm[] = {
"28 28 21 1",
" 	g None",
".	g #252525",
"+	g #3B3B3B",
"@	g #343434",
"#	g #363636",
"$	g #454545",
"%	g #4E4E4E",
"&	g #535353",
"*	g #3F3F3F",
"=	g #555555",
"-	g #3E3E3E",
";	g #545454",
">	g #525252",
",	g #404040",
"'	g #414141",
")	g #333333",
"!	g #4F4F4F",
"~	g #444444",
"{	g #424242",
"]	g #434343",
"^	g #353535",
"............................",
"++++++++++++++++++++++++++++",
"@@@@@@@@@@@@@@@@@@@@@@@@@@@@",
"@@@@@@@@@@@@@@@@@@@@@@@@@@@@",
"@@@@@@@@@@@@@@@@@@@@@@@@@@@@",
"@@@@@@@@@@@@@@@@@@@@@@@@@@@@",
"@@@@@@@@@@@@@@@@@@@@@@@@@@@@",
"@@@@@@@@@@#$%&&%$#@@@@@@@@@@",
"@@@@@@@@@*&======&-@@@@@@@@@",
"@@@@@@@@*;========;-@@@@@@@@",
"@@@@@@@#&==>====&==&#@@@@@@@",
"@@@@@@@$===@,;;')===$@@@@@@@",
"@@@@@@@!===~@,,@{===%@@@@@@@",
"@@@@@@@&====]@@{====&@@@@@@@",
"@@@@@@@&===;,@@*;===&@@@@@@@",
"@@@@@@@%===,@~~@,===%@@@@@@@",
"@@@@@@@$===#~==~#===~@@@@@@@",
"@@@@@@@#&==========>^@@@@@@@",
"@@@@@@@@-;========;-@@@@@@@@",
"@@@@@@@@@-&======>-@@@@@@@@@",
"@@@@@@@@@@#$%&&%~^@@@@@@@@@@",
"@@@@@@@@@@@@@@@@@@@@@@@@@@@@",
"@@@@@@@@@@@@@@@@@@@@@@@@@@@@",
"@@@@@@@@@@@@@@@@@@@@@@@@@@@@",
"@@@@@@@@@@@@@@@@@@@@@@@@@@@@",
"@@@@@@@@@@@@@@@@@@@@@@@@@@@@",
"@@@@@@@@@@@@@@@@@@@@@@@@@@@@",
"@@@@@@@@@@@@@@@@@@@@@@@@@@@@"};
