/* XPM */
static char * C:\Users\ETi\Desktop\Git\arc_grey_theme\common\xfwm4_dark\close_prelight_xpm[] = {
"28 28 27 1",
" 	g None",
".	g #252525",
"+	g #3B3B3B",
"@	g #343434",
"#	g #616161",
"$	g #7B7B7B",
"%	g #888888",
"&	g #515151",
"*	g #878787",
"=	g #8D8D8D",
"-	g #8C8C8C",
";	g #565656",
">	g #8B8B8B",
",	g #575757",
"'	g #7C7C7C",
")	g #5F5F5F",
"!	g #555555",
"~	g #5C5C5C",
"{	g #5D5D5D",
"]	g #5B5B5B",
"^	g #545454",
"/	g #8A8A8A",
"(	g #606060",
"_	g #626262",
":	g #3A3A3A",
"<	g #505050",
"[	g #7A7A7A",
"............................",
"++++++++++++++++++++++++++++",
"@@@@@@@@@@@@@@@@@@@@@@@@@@@@",
"@@@@@@@@@@@@@@@@@@@@@@@@@@@@",
"@@@@@@@@@@@@@@@@@@@@@@@@@@@@",
"@@@@@@@@@@@@@@@@@@@@@@@@@@@@",
"@@@@@@@@@@@@@@@@@@@@@@@@@@@@",
"@@@@@@@@@@+#$%%$#+@@@@@@@@@@",
"@@@@@@@@@&*======*&@@@@@@@@@",
"@@@@@@@@&-========-&@@@@@@@@",
"@@@@@@@+*==*====*==*+@@@@@@@",
"@@@@@@@#===@;>>,@===#@@@@@@@",
"@@@@@@@'===)@!;@~===$@@@@@@@",
"@@@@@@@*===={@@]====*@@@@@@@",
"@@@@@@@*===>^@@&/===*@@@@@@@",
"@@@@@@@$===;@((@;===$@@@@@@@",
"@@@@@@@#===+_==_+===(@@@@@@@",
"@@@@@@@+*==========*:@@@@@@@",
"@@@@@@@@&-========-<@@@@@@@@",
"@@@@@@@@@&*======*<@@@@@@@@@",
"@@@@@@@@@@+#[%%[(:@@@@@@@@@@",
"@@@@@@@@@@@@@@@@@@@@@@@@@@@@",
"@@@@@@@@@@@@@@@@@@@@@@@@@@@@",
"@@@@@@@@@@@@@@@@@@@@@@@@@@@@",
"@@@@@@@@@@@@@@@@@@@@@@@@@@@@",
"@@@@@@@@@@@@@@@@@@@@@@@@@@@@",
"@@@@@@@@@@@@@@@@@@@@@@@@@@@@",
"@@@@@@@@@@@@@@@@@@@@@@@@@@@@"};
