/* XPM */
static char * C:\Users\ETi\Desktop\Git\arc_grey_theme\common\xfwm4_dark\close_active_xpm[] = {
"28 28 24 1",
" 	g None",
".	g #252525",
"+	g #3B3B3B",
"@	g #343434",
"#	g #393939",
"$	g #535353",
"%	g #646464",
"&	g #6D6D6D",
"*	g #474747",
"=	g #707070",
"-	g #6F6F6F",
";	g #6C6C6C",
">	g #383838",
",	g #4B4B4B",
"'	g #4C4C4C",
")	g #525252",
"!	g #656565",
"~	g #515151",
"{	g #4A4A4A",
"]	g #4F4F4F",
"^	g #505050",
"/	g #4E4E4E",
"(	g #494949",
"_	g #484848",
"............................",
"++++++++++++++++++++++++++++",
"@@@@@@@@@@@@@@@@@@@@@@@@@@@@",
"@@@@@@@@@@@@@@@@@@@@@@@@@@@@",
"@@@@@@@@@@@@@@@@@@@@@@@@@@@@",
"@@@@@@@@@@@@@@@@@@@@@@@@@@@@",
"@@@@@@@@@@@@@@@@@@@@@@@@@@@@",
"@@@@@@@@@@#$%&&%$#@@@@@@@@@@",
"@@@@@@@@@*&======&*@@@@@@@@@",
"@@@@@@@@*-========-*@@@@@@@@",
"@@@@@@@#&==;====&==&>@@@@@@@",
"@@@@@@@$===@,--'@===)@@@@@@@",
"@@@@@@@!===~@{,@]===%@@@@@@@",
"@@@@@@@&====^@@/====&@@@@@@@",
"@@@@@@@&===-(@@_-===&@@@@@@@",
"@@@@@@@%===,@))@{===%@@@@@@@",
"@@@@@@@$===#$==$#===)@@@@@@@",
"@@@@@@@#&==========;>@@@@@@@",
"@@@@@@@@*-========-*@@@@@@@@",
"@@@@@@@@@*&======;*@@@@@@@@@",
"@@@@@@@@@@>)%&&%)>@@@@@@@@@@",
"@@@@@@@@@@@@@@@@@@@@@@@@@@@@",
"@@@@@@@@@@@@@@@@@@@@@@@@@@@@",
"@@@@@@@@@@@@@@@@@@@@@@@@@@@@",
"@@@@@@@@@@@@@@@@@@@@@@@@@@@@",
"@@@@@@@@@@@@@@@@@@@@@@@@@@@@",
"@@@@@@@@@@@@@@@@@@@@@@@@@@@@",
"@@@@@@@@@@@@@@@@@@@@@@@@@@@@"};
