/* XPM */
static char * C:\Users\ETi\Desktop\Git\arc_grey_theme\common\xfwm4_dark\close_inactive_xpm[] = {
"28 28 24 1",
" 	g None",
".	g #252525",
"+	g #3B3B3B",
"@	g #343434",
"#	g #383838",
"$	g #505050",
"%	g #5F5F5F",
"&	g #676767",
"*	g #606060",
"=	g #464646",
"-	g #6A6A6A",
";	g #454545",
">	g #353535",
",	g #494949",
"'	g #4A4A4A",
")	g #333333",
"!	g #4F4F4F",
"~	g #4E4E4E",
"{	g #484848",
"]	g #4D4D4D",
"^	g #4C4C4C",
"/	g #696969",
"(	g #515151",
"_	g #686868",
"............................",
"++++++++++++++++++++++++++++",
"@@@@@@@@@@@@@@@@@@@@@@@@@@@@",
"@@@@@@@@@@@@@@@@@@@@@@@@@@@@",
"@@@@@@@@@@@@@@@@@@@@@@@@@@@@",
"@@@@@@@@@@@@@@@@@@@@@@@@@@@@",
"@@@@@@@@@@@@@@@@@@@@@@@@@@@@",
"@@@@@@@@@@#$%&&*$#@@@@@@@@@@",
"@@@@@@@@@=&------&;@@@@@@@@@",
"@@@@@@@@=----------;@@@@@@@@",
"@@@@@@@#&--&----&--&#@@@@@@@",
"@@@@@@@$--->,--')---!@@@@@@@",
"@@@@@@@%---~@{{@]---*@@@@@@@",
"@@@@@@@&----~@@^----&@@@@@@@",
"@@@@@@@&---/{@@=/---&@@@@@@@",
"@@@@@@@%---{@!!@{---*@@@@@@@",
"@@@@@@@$---#(--(#---!@@@@@@@",
"@@@@@@@#&----------&#@@@@@@@",
"@@@@@@@@;----------;@@@@@@@@",
"@@@@@@@@@;&------&;@@@@@@@@@",
"@@@@@@@@@@#!%__%!#@@@@@@@@@@",
"@@@@@@@@@@@@@@@@@@@@@@@@@@@@",
"@@@@@@@@@@@@@@@@@@@@@@@@@@@@",
"@@@@@@@@@@@@@@@@@@@@@@@@@@@@",
"@@@@@@@@@@@@@@@@@@@@@@@@@@@@",
"@@@@@@@@@@@@@@@@@@@@@@@@@@@@",
"@@@@@@@@@@@@@@@@@@@@@@@@@@@@",
"@@@@@@@@@@@@@@@@@@@@@@@@@@@@"};
