/* XPM */
static char * C:\Users\ETi\Desktop\Git\arc_grey_theme\common\xfwm4_dark\maximize_prelight_xpm[] = {
"28 28 24 1",
" 	g None",
".	g #252525",
"+	g #3B3B3B",
"@	g #343434",
"#	g #333333",
"$	g #2E2E2E",
"%	g #2B2B2B",
"&	g #292929",
"*	g #303030",
"=	g #2A2A2A",
"-	g #353535",
";	g #424242",
">	g #494949",
",	g #434343",
"'	g #4B4B4B",
")	g #4D4D4D",
"!	g #9F9F9F",
"~	g #C7C7C7",
"{	g #AEAEAE",
"]	g #A2A2A2",
"^	g #4E4E4E",
"/	g #4C4C4C",
"(	g #9B9B9B",
"_	g #AFAFAF",
"............................",
"++++++++++++++++++++++++++++",
"@@@@@@@@@@@@@@@@@@@@@@@@@@@@",
"@@@@@@@@@@@@@@@@@@@@@@@@@@@@",
"@@@@@@@@@@@@@@@@@@@@@@@@@@@@",
"@@@@@@@@@@@@@@@@@@@@@@@@@@@@",
"@@@@@@@@@@@@@@@@@@@@@@@@@@@@",
"@@@@@@@@@@#$%&&%$#@@@@@@@@@@",
"@@@@@@@@@*=-;>>;-=*@@@@@@@@@",
"@@@@@@@@*%,'''''';%*@@@@@@@@",
"@@@@@@@#=,'''''''';=#@@@@@@@",
"@@@@@@@$-''')!~~{''-$@@@@@@@",
"@@@@@@@%;'')')!~~'';%@@@@@@@",
"@@@@@@@&>')]^'/(~''>&@@@@@@@",
"@@@@@@@&>')~]^'/(''>&@@@@@@@",
"@@@@@@@%;')~~!)')'';%@@@@@@@",
"@@@@@@@$-''_~~!)'''-$@@@@@@@",
"@@@@@@@#=;'''''''';%#@@@@@@@",
"@@@@@@@@*%;'''''';%*@@@@@@@@",
"@@@@@@@@@*=-;>>;-%*@@@@@@@@@",
"@@@@@@@@@@#$%&&%$#@@@@@@@@@@",
"@@@@@@@@@@@@@@@@@@@@@@@@@@@@",
"@@@@@@@@@@@@@@@@@@@@@@@@@@@@",
"@@@@@@@@@@@@@@@@@@@@@@@@@@@@",
"@@@@@@@@@@@@@@@@@@@@@@@@@@@@",
"@@@@@@@@@@@@@@@@@@@@@@@@@@@@",
"@@@@@@@@@@@@@@@@@@@@@@@@@@@@",
"@@@@@@@@@@@@@@@@@@@@@@@@@@@@"};
