/* XPM */
static char * C:\Users\ETi\Desktop\Git\arc_grey_theme\common\xfwm4_dark\maximize_pressed_xpm[] = {
"28 28 25 1",
" 	g None",
".	g #252525",
"+	g #3B3B3B",
"@	g #343434",
"#	g #333333",
"$	g #616161",
"%	g #7A7A7A",
"&	g #878787",
"*	g #7B7B7B",
"=	g #606060",
"-	g #505050",
";	g #8C8C8C",
">	g #8B8B8B",
",	g #868686",
"'	g #3A3A3A",
")	g #8E8E8E",
"!	g #DADADA",
"~	g #FFFFFF",
"{	g #E8E8E8",
"]	g #8D8D8D",
"^	g #DDDDDD",
"/	g #8F8F8F",
"(	g #D7D7D7",
"_	g #EAEAEA",
":	g #5F5F5F",
"............................",
"++++++++++++++++++++++++++++",
"@@@@@@@@@@@@@@@@@@@@@@@@@@@@",
"@@@@@@@@@@@@@@@@@@@@@@@@@@@@",
"@@@@@@@@@@@@@@@@@###@@@@@@@@",
"@@@@@@@@##################@@",
"@@########################@@",
"@@########+$%&&*=+########@@",
"@@#######-&;;;;;;&-#######@@",
"@@######->;;;;;;;;>-######@@",
"@@#####+&;;;;;;;;;;,'#####@@",
"@@#####$;;;;)!~~{;;;=#####@@",
"@@#####*;;;);)!~~;;;*#####@@",
"@@#####&;;]^/;](~;;;&#####@@",
"@@#####&;;]~^/;](;;;,#####@@",
"@@#####%;;]~~!););;;*#####@@",
"@@#####=;;;_~~!);;;;:#####@@",
"@@#####+&;;;;;;;;;;,'#####@@",
"@@######->;;;;;;;;>-######@@",
"@@#######-,;;;;;;,-#######@@",
"@@########'=%&&%:'########@@",
"@@########################@@",
"@@########################@@",
"@@########################@@",
"@@########################@@",
"@@########################@@",
"@@@@@@@@@@@@@@@@@@@@@@@@@@@@",
"@@@@@@@@@@@@@@@@@@@@@@@@@@@@"};
