<?xml version="1.0" encoding="utf-8"?>
<!-- Generator: Adobe Illustrator 19.2.1, SVG Export Plug-In . SVG Version: 6.00 Build 0)  -->
<svg version="1.1"
	 id="svg5995" inkscape:version="0.91 r13725" sodipodi:docname="message-close.svg" xmlns:cc="http://creativecommons.org/ns#" xmlns:dc="http://purl.org/dc/elements/1.1/" xmlns:inkscape="http://www.inkscape.org/namespaces/inkscape" xmlns:rdf="http://www.w3.org/1999/02/22-rdf-syntax-ns#" xmlns:sodipodi="http://sodipodi.sourceforge.net/DTD/sodipodi-0.dtd" xmlns:svg="http://www.w3.org/2000/svg"
	 xmlns="http://www.w3.org/2000/svg" xmlns:xlink="http://www.w3.org/1999/xlink" x="0px" y="0px" viewBox="0 0 18 18"
	 style="enable-background:new 0 0 18 18;" xml:space="preserve">
<style type="text/css">
	.st0{fill-opacity:0.1529;stroke:#000000;stroke-width:1;stroke-linecap:round;stroke-opacity:0.3804;}
	.st1{fill:#AFAFAF;}
</style>
<sodipodi:namedview  bordercolor="#666666" borderopacity="1.0" id="base" inkscape:bbox-nodes="true" inkscape:bbox-paths="true" inkscape:current-layer="layer1" inkscape:cx="10.054598" inkscape:cy="11.067953" inkscape:document-units="px" inkscape:pageopacity="0.0" inkscape:pageshadow="2" inkscape:snap-bbox="true" inkscape:snap-bbox-edge-midpoints="true" inkscape:zoom="15.839192" pagecolor="#ffffff" showgrid="true" units="px">
	<inkscape:grid  id="grid6543" type="xygrid"></inkscape:grid>
</sodipodi:namedview>
<g id="layer1" transform="translate(0,-1034.3622)" inkscape:groupmode="layer" inkscape:label="Ebene 1">
	<circle id="path4166" class="st0" cx="9" cy="1043.4" r="8.5"/>
	
		<g id="g4201" transform="translate(-19.06014,1044.3075)" inkscape:transform-center-x="19.062501" inkscape:transform-center-y="9.1875004">
		<g id="layer9" transform="translate(-60,-518)">
		</g>
		<g id="layer10" transform="translate(-60,-518)">
		</g>
		<g id="layer11" transform="translate(-60,-518)">
		</g>
		<g id="g2996" transform="matrix(0.75,0,0,0.75,22.062499,-6.9452236)">
			<g id="layer12" transform="translate(-60,-518)">
				<g id="layer4-4-1" transform="translate(19,-242)">
					<path id="path10839-9" inkscape:connector-curvature="0" class="st1" d="M45,764h1c0,0,0,0,0,0c0.3,0,0.5,0.1,0.7,0.3l2.3,2.3
						l2.3-2.3c0.3-0.2,0.4-0.3,0.7-0.3h1v1c0,0.3,0,0.6-0.3,0.8l-2.3,2.3l2.3,2.3c0.2,0.2,0.3,0.5,0.3,0.7v1h-1
						c-0.3,0-0.5-0.1-0.7-0.3l-2.3-2.3l-2.3,2.3c-0.2,0.2-0.5,0.3-0.7,0.3h-1v-1c0-0.3,0.1-0.5,0.3-0.7l2.3-2.3l-2.3-2.3
						c-0.2-0.2-0.3-0.5-0.3-0.8V764z"/>
				</g>
			</g>
		</g>
		<g id="layer13" transform="translate(-60,-518)">
		</g>
		<g id="layer14" transform="translate(-60,-518)">
		</g>
		<g id="layer15" transform="translate(-60,-518)">
		</g>
	</g>
</g>
</svg>
